<svg xmlns:inkscape="http://www.inkscape.org/namespaces/inkscape" xmlns:sodipodi="http://sodipodi.sourceforge.net/DTD/sodipodi-0.dtd" xmlns="http://www.w3.org/2000/svg" xmlns:svg="http://www.w3.org/2000/svg" id="svg2" width="1333.3333" height="1333.3333" viewBox="0 0 1333.3333 1333.3333" sodipodi:docname="Orion logo file.ai"><defs id="defs6"><clipPath clipPathUnits="userSpaceOnUse" id="clipPath16"><path d="M 0,1000 H 1000 V 0 H 0 Z" id="path14"></path></clipPath></defs><g id="g8" inkscape:groupmode="layer" inkscape:label="Orion logo file" transform="matrix(1.3333333,0,0,-1.3333333,0,1333.3333)"><g id="g10"><g id="g12" clip-path="url(#clipPath16)"><g id="g18" transform="translate(318.899,300.4494)"><path d="m 0,0 c 0,7.895 -2.945,15.123 -7.629,20.21 -4.551,4.816 -10.707,7.894 -17.666,7.894 -6.96,0 -13.117,-3.078 -17.667,-7.894 C -47.78,15.123 -50.724,7.895 -50.724,0 c 0,-7.763 2.944,-14.857 7.762,-20.076 4.55,-4.818 10.707,-7.897 17.667,-7.897 6.959,0 13.115,3.079 17.666,7.897 C -2.945,-14.857 0,-7.763 0,0 M 8.431,35.199 C 16.997,26.231 22.216,13.784 22.216,0 c 0,-13.518 -5.219,-26.099 -13.785,-35.065 -8.565,-9.236 -20.477,-14.991 -33.726,-14.991 -13.25,0 -25.295,5.755 -33.861,14.991 -8.431,8.966 -13.651,21.547 -13.651,35.065 0,13.784 5.22,26.231 13.651,35.199 8.566,9.368 20.611,14.989 33.861,14.989 13.249,0 25.161,-5.621 33.726,-14.989" style="fill:#091e40;fill-opacity:1;fill-rule:nonzero;stroke:none" id="path20"></path></g><g id="g22" transform="translate(385.0033,328.8222)"><path d="m 0,0 v -33.859 h 14.052 c 19.005,0 19.005,33.859 0,33.859 z M -21.548,-79.231 V 21.547 h 35.6 c 42.56,0 46.843,-62.232 12.848,-74.545 L 48.448,-79.231 H 21.28 L 1.472,-55.14 H 0 v -24.091 z" style="fill:#091e40;fill-opacity:1;fill-rule:nonzero;stroke:none" id="path24"></path></g><path d="m 460.478,350.235 h 22.485 V 249.86 h -22.485 z" style="fill:#091e40;fill-opacity:1;fill-rule:nonzero;stroke:none" id="path26"></path><g id="g28" transform="translate(578.1152,300.4494)"><path d="m 0,0 c 0,7.895 -2.945,15.123 -7.629,20.21 -4.551,4.816 -10.707,7.894 -17.666,7.894 -6.96,0 -13.117,-3.078 -17.667,-7.894 C -47.78,15.123 -50.724,7.895 -50.724,0 c 0,-7.763 2.944,-14.857 7.762,-20.076 4.55,-4.818 10.707,-7.897 17.667,-7.897 6.959,0 13.115,3.079 17.666,7.897 C -2.945,-14.857 0,-7.763 0,0 M 8.431,35.199 C 16.997,26.231 22.216,13.784 22.216,0 c 0,-13.518 -5.219,-26.099 -13.785,-35.065 -8.565,-9.236 -20.477,-14.991 -33.726,-14.991 -13.25,0 -25.295,5.755 -33.861,14.991 -8.431,8.966 -13.651,21.547 -13.651,35.065 0,13.784 5.22,26.231 13.651,35.199 8.566,9.368 20.611,14.989 33.861,14.989 13.249,0 25.161,-5.621 33.726,-14.989" style="fill:#091e40;fill-opacity:1;fill-rule:nonzero;stroke:none" id="path30"></path></g><g id="g32" transform="translate(683.8351,350.2347)"><path d="M 0,0 H 22.351 V -100.375 H -1.874 l -36.536,62.234 v -62.234 H -60.761 V 0 H -38.41 L 0,-65.311 Z" style="fill:#091e40;fill-opacity:1;fill-rule:nonzero;stroke:none" id="path34"></path></g><g id="g36" transform="translate(479.3896,743.482)"><path d="m 0,0 c 0,0 -90.868,10.143 -148.05,-71.168 -62.487,-88.83 -29.154,-222.149 95.802,-262.177 0,0 -134.503,26.08 -148.951,153.73 -14.448,127.652 58.363,186.508 102.271,205.599 0,0 63.354,-9.04 98.928,-25.984" style="fill:#091e40;fill-opacity:1;fill-rule:nonzero;stroke:none" id="path38"></path></g><g id="g40" transform="translate(594.7754,621.4793)"><path d="m 0,0 c -1.782,-20.27 -6.928,-38.547 -14.643,-54.332 l 84.96,24.274 C 71.65,-11.203 70.005,8.715 64.728,29.376 14.183,227.301 -197.648,160.408 -197.648,160.408 -100.937,149.114 10.069,114.438 0,0" style="fill:#ec1c24;fill-opacity:1;fill-rule:nonzero;stroke:none" id="path42"></path></g><g id="g44" transform="translate(546.1423,524.7308)"><path d="m 0,0 c -22.82,-17.542 -51.437,-24.785 -81.209,-18.476 -75.303,15.957 -98.711,101.419 -47.154,152.502 55.222,54.704 126.073,2.26 126.073,2.26 -38.371,50.987 -124.433,50.019 -166.734,-2.26 -41.127,-50.834 -43.28,-157.087 55.591,-211.246 83.924,-45.971 194.348,8.354 224.773,104.024 z" style="fill:#ec1c24;fill-opacity:1;fill-rule:nonzero;stroke:none" id="path46"></path></g></g></g></g></svg>