<svg version="1.2" xmlns="http://www.w3.org/2000/svg" viewBox="0 0 646 758" width="646" height="758">
	<defs>
		<clipPath clipPathUnits="userSpaceOnUse" id="cp1">
			<path d="m-311-256h1332.67v1332.67h-1332.67z"/>
		</clipPath>
	</defs>
	<style>
		.s0 { fill: #091e40 } 
		.s1 { fill: #ec1c24 } 
	</style>
	<g id="g8">
		<g id="g10">
			<g id="Clip-Path: g12" clip-path="url(#cp1)">
				<g id="g12">
					<g id="g18">
						<path id="path20" class="s0" d="m125.22 629.36c11.42 11.95 18.37 28.54 18.37 46.91 0 18.01-6.95 34.78-18.37 46.73-11.41 12.31-27.29 19.98-44.94 19.98-17.66 0-33.71-7.67-45.13-19.98-11.23-11.95-18.19-28.72-18.19-46.73 0-18.37 6.96-34.96 18.19-46.91 11.42-12.49 27.47-19.98 45.13-19.98 17.65 0 33.53 7.49 44.94 19.98zm-11.23 46.91c0-10.52-3.93-20.16-10.17-26.94-6.07-6.41-14.27-10.52-23.54-10.52-9.28 0-17.48 4.11-23.55 10.52-6.42 6.78-10.34 16.42-10.34 26.94 0 10.34 3.92 19.8 10.34 26.75 6.07 6.42 14.27 10.53 23.55 10.53 9.27 0 17.47-4.11 23.54-10.53 6.24-6.95 10.17-16.41 10.17-26.75z"/>
					</g>
					<g id="g22">
						<path id="path24" class="s0" d="m173.36 744.04v-134.3h47.45c56.72 0 62.42 82.94 17.12 99.35l28.72 34.95h-36.21l-26.4-32.1h-1.96v32.1zm28.72-105.58v45.12h18.72c25.33 0 25.33-45.12 0-45.12z"/>
					</g>
					<path id="path26" class="s0" d="m302.66 609.92h29.97v133.77h-29.97z"/>
					<g id="g28">
						<path id="path30" class="s0" d="m470.67 629.36c11.42 11.95 18.37 28.54 18.37 46.91 0 18.01-6.95 34.78-18.37 46.73-11.41 12.31-27.29 19.98-44.94 19.98-17.66 0-33.71-7.67-45.13-19.98-11.24-11.95-18.19-28.72-18.19-46.73 0-18.37 6.95-34.96 18.19-46.91 11.42-12.49 27.47-19.98 45.13-19.98 17.65 0 33.53 7.49 44.94 19.98zm-11.23 46.91c0-10.52-3.93-20.16-10.17-26.94-6.07-6.41-14.27-10.52-23.54-10.52-9.28 0-17.49 4.11-23.55 10.52-6.42 6.78-10.34 16.42-10.34 26.94 0 10.34 3.92 19.8 10.34 26.75 6.06 6.42 14.27 10.53 23.55 10.53 9.27 0 17.47-4.11 23.54-10.53 6.24-6.95 10.17-16.41 10.17-26.75z"/>
					</g>
					<g id="g32">
						<path id="path34" class="s0" d="m600.32 609.92h29.79v133.77h-32.28l-48.69-82.94v82.94h-29.79v-133.77h29.79l51.18 87.04z"/>
					</g>
					<g id="g36">
						<path id="path38" class="s0" d="m327.87 85.85c0 0-121.1-13.51-197.3 94.85-83.28 118.38-38.86 296.05 127.67 349.39 0 0-179.25-34.76-198.5-204.87-19.26-170.12 77.77-248.55 136.29-273.99 0 0 84.43 12.04 131.84 34.62z"/>
					</g>
					<g id="g40">
						<path id="path42" class="s1" d="m481.64 248.44c-2.38 27.02-9.24 51.37-19.52 72.41l113.23-32.35c1.77-25.13-0.42-51.67-7.45-79.21-67.36-263.76-349.66-174.62-349.66-174.62 128.88 15.05 276.82 61.26 263.4 213.77z"/>
					</g>
					<g id="g44">
						<path id="path46" class="s1" d="m416.83 377.38c-30.42 23.37-68.55 33.03-108.23 24.62-100.35-21.27-131.55-135.16-62.84-203.24 73.59-72.9 168.01-3.01 168.01-3.01-51.13-67.95-165.82-66.66-222.2 3.01-54.81 67.75-57.67 209.35 74.09 281.52 111.84 61.27 259-11.13 299.54-138.63z"/>
					</g>
				</g>
			</g>
		</g>
	</g>
</svg>