<?xml version="1.0" standalone="no"?>
<!DOCTYPE svg PUBLIC "-//W3C//DTD SVG 20010904//EN"
 "http://www.w3.org/TR/2001/REC-SVG-20010904/DTD/svg10.dtd">
<svg version="1.0" xmlns="http://www.w3.org/2000/svg"
 width="900.000000pt" height="600.000000pt" viewBox="0 0 900.000000 600.000000"
 preserveAspectRatio="xMidYMid meet">

<g transform="translate(0.000000,600.000000) scale(0.100000,-0.100000)"
fill="#000000" stroke="none">
<path d="M900 3996 c-321 -72 -581 -295 -690 -594 -199 -546 129 -1132 700
-1247 112 -23 310 -16 423 14 268 71 517 291 622 549 222 547 -100 1155 -678
1277 -83 18 -299 18 -377 1z m400 -47 c104 -24 262 -101 347 -169 150 -120
269 -308 314 -495 41 -170 28 -367 -37 -536 -107 -283 -385 -510 -685 -558
-278 -46 -555 37 -760 227 -313 291 -378 752 -158 1125 27 46 79 108 143 172
85 84 117 108 201 152 213 109 409 135 635 82z"/>
<path d="M1600 3515 c-19 -11 -81 -14 -273 -15 -198 0 -254 -3 -276 -15 -18
-9 -46 -44 -73 -92 -25 -43 -73 -127 -107 -186 l-62 -108 21 -34 c12 -19 23
-35 25 -35 2 0 16 21 31 48 31 54 61 89 89 105 13 8 100 14 236 17 199 5 219
7 239 25 32 29 102 153 94 167 -4 6 -3 8 4 4 6 -4 25 21 46 61 20 37 35 68 33
69 -1 1 -13 -4 -27 -11z"/>
<path d="M1770 3165 c-20 -12 -86 -14 -344 -15 -381 0 -351 10 -441 -146 -33
-58 -81 -141 -107 -186 -26 -44 -45 -86 -41 -92 3 -6 3 -8 -2 -4 -4 4 -20 1
-36 -7 -89 -47 -212 25 -212 124 0 79 43 112 149 114 l61 1 -24 40 c-41 73
-79 121 -95 124 -58 11 -162 -57 -200 -132 -29 -57 -35 -156 -14 -230 21 -70
82 -136 160 -172 l52 -24 497 0 c274 0 502 2 507 5 5 3 24 35 43 70 l35 65
-402 2 c-393 3 -401 3 -401 23 0 19 8 20 285 25 199 3 291 9 307 17 17 11 83
103 83 118 0 2 19 37 43 77 51 86 126 218 124 218 -1 -1 -13 -7 -27 -15z"/>
<path d="M6416 3648 c-96 -13 -170 -58 -201 -125 -23 -47 -21 -144 2 -184 24
-41 95 -83 182 -107 40 -12 89 -29 109 -40 67 -34 68 -105 3 -149 -41 -28
-135 -32 -186 -7 -32 15 -65 64 -65 98 0 13 -13 16 -70 16 l-70 0 0 -37 c1
-52 30 -112 73 -150 105 -92 357 -81 455 20 80 83 81 220 1 292 -36 32 -63 43
-203 80 -96 26 -131 85 -83 140 60 70 237 39 237 -42 0 -22 3 -23 76 -23 l77
0 -7 43 c-21 130 -151 199 -330 175z"/>
<path d="M2386 3615 c-31 -123 -96 -466 -96 -506 0 -130 105 -209 279 -209
155 0 238 46 295 162 29 58 47 123 86 310 28 131 50 245 50 253 0 12 -15 15
-74 15 l-75 0 -15 -72 c-9 -40 -31 -149 -51 -243 -55 -263 -82 -299 -219 -293
-62 3 -71 7 -97 36 -16 18 -29 41 -29 52 0 11 23 128 50 259 28 131 50 244 50
250 0 7 -27 11 -74 11 -71 0 -74 -1 -80 -25z"/>
<path d="M3121 3603 c-5 -21 -13 -50 -17 -65 l-6 -28 188 0 189 0 -65 -62
c-404 -384 -427 -408 -434 -446 -3 -20 -9 -47 -12 -59 l-6 -23 305 0 305 0 8
53 c5 28 8 56 9 60 0 4 -89 8 -197 8 -109 0 -198 3 -198 8 0 4 66 70 147 147
342 323 331 312 347 382 l14 62 -284 0 -283 0 -10 -37z"/>
<path d="M3805 3619 c-10 -46 -145 -690 -145 -695 0 -2 103 -4 229 -4 179 0
238 3 272 15 99 35 152 107 153 210 1 69 -17 106 -65 133 -16 10 -29 19 -29
22 1 3 20 14 43 25 52 25 80 76 80 149 0 68 -24 111 -76 138 -39 21 -58 23
-249 26 l-207 4 -6 -23z m359 -120 c41 -32 32 -107 -17 -139 -25 -16 -247 -28
-247 -14 0 5 7 46 16 92 l17 82 102 0 c88 0 106 -3 129 -21z m-55 -270 c17 -6
36 -19 41 -29 26 -48 0 -127 -49 -151 -27 -13 -230 -26 -255 -16 -11 5 -10 22
7 106 l21 101 102 0 c55 0 115 -5 133 -11z"/>
<path d="M4496 3413 c-26 -126 -59 -288 -75 -360 l-28 -133 277 0 278 0 11 44
c22 87 36 81 -184 79 -147 -2 -195 1 -195 10 0 7 7 49 16 95 l17 82 182 0 183
0 11 44 c20 81 32 76 -170 76 l-181 0 5 23 c3 12 11 48 17 80 l11 57 198 0
198 0 12 57 c6 31 11 60 11 65 0 4 -123 8 -273 8 l-274 0 -47 -227z"/>
<path d="M5220 3636 c0 -8 -141 -682 -146 -698 -5 -16 3 -18 74 -18 l80 0 23
111 23 111 55 49 c30 27 58 46 62 42 4 -5 41 -77 83 -160 l77 -153 85 0 c46 0
84 3 84 6 0 7 -184 365 -204 396 -12 21 -27 5 159 164 77 65 149 127 160 136
19 17 16 18 -83 17 l-103 -1 -162 -149 c-89 -82 -165 -149 -168 -149 -3 0 7
60 23 133 15 72 28 140 28 150 0 15 -10 17 -75 17 -41 0 -75 -2 -75 -4z"/>
<path d="M5956 3623 c-8 -25 -146 -683 -146 -694 0 -6 32 -9 77 -7 l77 3 72
345 c40 190 73 351 74 358 0 8 -21 12 -74 12 -62 0 -76 -3 -80 -17z"/>
<path d="M6842 3589 c-20 -84 -25 -79 98 -79 61 0 110 -4 110 -8 0 -7 -102
-503 -115 -559 -5 -22 -3 -23 73 -23 l78 0 59 283 c32 155 60 288 63 295 3 8
35 12 112 12 l107 0 12 57 c6 31 11 60 11 65 0 4 -134 8 -298 8 l-299 0 -11
-51z"/>
<path d="M7475 3284 c-115 -197 -211 -360 -213 -363 -1 -3 35 -5 81 -3 l83 3
44 80 45 79 136 0 137 0 6 -47 c4 -27 10 -63 13 -80 l5 -33 74 0 c70 0 74 1
73 23 0 12 -26 173 -57 357 l-57 335 -80 3 -80 2 -210 -356z m280 76 c8 -63
15 -126 15 -142 l0 -28 -96 0 c-86 0 -95 2 -90 17 14 34 148 274 152 270 2 -2
11 -55 19 -117z"/>
<path d="M8170 3588 c-6 -29 -38 -181 -71 -338 -33 -157 -62 -295 -66 -307 -5
-22 -3 -23 68 -23 l74 0 50 250 c27 138 52 250 55 250 3 0 49 -111 102 -247
l96 -248 80 -3 c77 -3 80 -2 86 22 3 13 35 164 71 336 36 172 68 323 71 336 6
24 5 24 -64 24 -47 0 -71 -4 -74 -12 -3 -7 -27 -124 -53 -260 -27 -136 -51
-245 -54 -242 -3 3 -49 119 -102 257 l-95 252 -81 3 -81 3 -12 -53z"/>
<path d="M6654 2623 c-3 -16 -7 -34 -10 -40 -2 -9 11 -13 46 -13 54 0 55 1 65
48 l7 32 -51 0 c-47 0 -51 -2 -57 -27z"/>
<path d="M6250 2492 c-31 -15 -80 -72 -80 -93 0 -5 22 -9 49 -9 40 0 51 4 56
19 7 24 64 44 100 35 16 -4 30 -17 36 -33 14 -37 -15 -57 -93 -66 -123 -13
-182 -47 -194 -113 -8 -44 7 -77 48 -102 42 -25 91 -25 147 0 52 24 52 24 45
5 -5 -12 3 -15 42 -15 l49 0 30 150 c22 112 27 156 19 177 -14 41 -65 63 -149
63 -47 0 -82 -6 -105 -18z m140 -201 c0 -21 -22 -67 -42 -88 -39 -42 -128 -24
-128 26 0 29 35 53 92 61 76 11 78 11 78 1z"/>
<path d="M6980 2504 c-8 -4 -30 -20 -48 -37 l-32 -31 6 32 7 32 -47 0 c-39 0
-46 -3 -51 -22 -3 -13 -19 -88 -35 -168 -17 -80 -32 -155 -35 -167 -5 -21 -2
-23 44 -23 39 0 51 4 55 18 2 9 14 60 26 113 27 125 54 159 127 166 45 5 52 9
58 30 3 14 8 24 10 22 2 -2 11 -82 21 -177 l18 -173 54 3 55 3 57 127 c30 70
59 130 63 134 4 4 7 -13 7 -38 0 -25 3 -86 6 -136 l7 -92 51 0 52 0 97 185
c53 101 97 187 97 190 0 3 -23 5 -50 5 l-51 0 -41 -87 c-22 -49 -50 -108 -61
-133 l-21 -45 -7 65 c-4 36 -7 95 -8 133 l-1 67 -54 0 -54 0 -35 -82 c-20 -46
-46 -105 -59 -133 l-23 -50 -6 55 c-4 30 -7 90 -8 133 l-1 77 -29 0 c-15 0
-55 2 -87 5 -32 2 -66 2 -74 -1z"/>
<path d="M7774 2495 c-37 -16 -74 -60 -74 -86 0 -16 8 -19 44 -19 36 0 46 4
51 20 9 29 74 46 111 29 33 -16 42 -49 20 -72 -9 -8 -44 -18 -78 -22 -133 -14
-180 -40 -198 -106 -14 -51 2 -88 50 -111 46 -24 97 -23 143 2 44 24 47 24 47
5 0 -11 12 -15 48 -15 l47 0 3 41 c1 22 11 79 22 125 33 141 26 184 -35 210
-43 18 -160 17 -201 -1z m133 -230 c-16 -53 -52 -85 -96 -85 -44 0 -61 14 -61
51 0 36 19 50 82 59 92 13 88 15 75 -25z"/>
<path d="M8564 2490 c-44 -22 -64 -53 -64 -100 0 -58 22 -77 124 -107 62 -18
76 -29 76 -57 0 -33 -19 -46 -67 -46 -42 0 -83 25 -83 50 0 6 -20 10 -45 10
-41 0 -45 -2 -45 -24 0 -67 98 -115 203 -102 88 12 137 58 137 130 0 50 -29
79 -106 105 -81 28 -98 41 -90 69 13 39 96 40 116 1 13 -24 100 -28 100 -4 0
30 -24 65 -55 80 -48 22 -150 20 -201 -5z"/>
<path d="M6625 2488 c-6 -18 -75 -349 -75 -359 0 -5 23 -9 50 -9 28 0 50 2 50
4 0 7 71 340 76 359 5 15 -2 17 -46 17 -32 0 -52 -5 -55 -12z"/>
<path d="M8100 2483 c0 -10 14 -92 30 -183 17 -91 30 -171 30 -177 0 -25 -40
-53 -75 -53 -30 0 -35 -4 -41 -27 -3 -16 -7 -34 -10 -40 -2 -8 7 -14 24 -15
82 -4 133 12 158 49 23 36 254 452 254 458 0 3 -23 5 -51 5 l-50 0 -65 -136
c-36 -75 -67 -134 -69 -132 -3 3 -35 242 -35 262 0 3 -22 6 -50 6 -41 0 -50
-3 -50 -17z"/>
</g>
</svg>
